<svg width="20" height="20" viewBox="0 0 20 20" fill="none" xmlns="http://www.w3.org/2000/svg">
<path fill-rule="evenodd" clip-rule="evenodd" d="M10 0C4.47788 0 0 4.59027 0 10.2531C0 14.7832 2.86534 18.6265 6.83863 19.9823C7.33835 20.0772 7.52189 19.7598 7.52189 19.489C7.52189 19.2447 7.5127 18.4368 7.50836 17.5801C4.72634 18.2004 4.1393 16.3703 4.1393 16.3703C3.68436 15.1853 3.02902 14.8701 3.02902 14.8701C2.12162 14.2337 3.09741 14.2468 3.09741 14.2468C4.10147 14.3191 4.63031 15.3036 4.63031 15.3036C5.52219 16.871 6.96965 16.4178 7.54037 16.1558C7.63014 15.4932 7.88919 15.0407 8.17526 14.7847C5.9541 14.5255 3.6191 13.6463 3.6191 9.71756C3.6191 8.59824 4.00979 7.68355 4.64954 6.9655C4.54572 6.70715 4.20339 5.66439 4.74643 4.25201C4.74643 4.25201 5.5862 3.9766 7.49701 5.30314C8.29474 5.07593 9.15026 4.962 10.0001 4.95805C10.8499 4.962 11.706 5.07593 12.5051 5.30314C14.4139 3.9766 15.2524 4.25201 15.2524 4.25201C15.7967 5.66439 15.4544 6.70715 15.3506 6.9655C15.9918 7.68355 16.3797 8.5982 16.3797 9.71756C16.3797 13.6557 14.0403 14.5227 11.8135 14.7766C12.1722 15.0948 12.4917 15.7187 12.4917 16.6753C12.4917 18.0472 12.4802 19.1513 12.4802 19.489C12.4802 19.7619 12.6602 20.0817 13.167 19.981C17.1383 18.6237 20 14.7817 20 10.2531C20 4.59027 15.5227 0 10 0Z" fill="white"/>
<path d="M3.78757 14.7212C3.76556 14.7722 3.68732 14.7875 3.61616 14.7525C3.54357 14.7191 3.50299 14.6496 3.52642 14.5985C3.54793 14.546 3.62615 14.5315 3.69862 14.5665C3.77124 14.6 3.81265 14.6701 3.78757 14.7212Z" fill="white"/>
<path d="M4.19263 15.1845C4.14497 15.2297 4.05162 15.2087 3.98838 15.1371C3.9229 15.0656 3.9108 14.9699 3.95919 14.924C4.00835 14.8787 4.09875 14.8999 4.16418 14.9714C4.2297 15.0437 4.24243 15.1386 4.19263 15.1845Z" fill="white"/>
<path d="M4.58693 15.7749C4.52562 15.8187 4.42537 15.7777 4.36342 15.6865C4.30212 15.5953 4.30213 15.4859 4.36486 15.4421C4.42681 15.3983 4.52564 15.4377 4.58836 15.5281C4.6495 15.6209 4.64949 15.7303 4.58693 15.7749Z" fill="white"/>
<path d="M5.127 16.3455C5.07215 16.4075 4.95539 16.3907 4.87006 16.3062C4.78258 16.2236 4.75832 16.1062 4.81312 16.0442C4.86878 15.9822 4.98616 15.9995 5.07214 16.0835C5.15897 16.166 5.18533 16.2841 5.127 16.3455Z" fill="white"/>
<path d="M5.87226 16.6767C5.84802 16.757 5.73565 16.7934 5.62241 16.7593C5.50921 16.7241 5.43533 16.6301 5.4581 16.549C5.48153 16.4682 5.59454 16.4302 5.70855 16.4667C5.82163 16.5016 5.89568 16.595 5.87226 16.6767Z" fill="white"/>
<path d="M6.69062 16.7381C6.69334 16.8226 6.5973 16.8928 6.47849 16.8943C6.35899 16.8971 6.26212 16.8287 6.26086 16.7454C6.26086 16.66 6.35474 16.5907 6.47428 16.5885C6.59309 16.5862 6.69062 16.6542 6.69062 16.7381Z" fill="white"/>
<path d="M7.45227 16.6053C7.46648 16.6877 7.38378 16.7724 7.26569 16.795C7.14959 16.8168 7.04222 16.7658 7.02736 16.684C7.01298 16.5995 7.09703 16.5147 7.21305 16.4928C7.33129 16.4718 7.4372 16.5213 7.45227 16.6053Z" fill="white"/>
</svg>
