<svg width="100" height="100" viewBox="0 0 100 100" fill="none" xmlns="http://www.w3.org/2000/svg">
<path d="M60 60H10C7.34784 60 4.8043 58.9464 2.92893 57.0711C1.05357 55.1957 0 52.6522 0 50V50C0 47.3478 1.05357 44.8043 2.92893 42.9289C4.8043 41.0536 7.34784 40 10 40H60C62.6522 40 65.1957 41.0536 67.0711 42.9289C68.9464 44.8043 70 47.3478 70 50C70 52.6522 68.9464 55.1957 67.0711 57.0711C65.1957 58.9464 62.6522 60 60 60ZM100 10C100 7.34784 98.9464 4.8043 97.0711 2.92893C95.1957 1.05357 92.6522 0 90 0H10C7.34784 0 4.8043 1.05357 2.92893 2.92893C1.05357 4.8043 0 7.34784 0 10V10C0 12.6522 1.05357 15.1957 2.92893 17.0711C4.8043 18.9464 7.34784 20 10 20H90C92.6522 20 95.1957 18.9464 97.0711 17.0711C98.9464 15.1957 100 12.6522 100 10V10ZM40 90C40 87.3478 38.9464 84.8043 37.0711 82.9289C35.1957 81.0536 32.6522 80 30 80H10C7.34784 80 4.8043 81.0536 2.92893 82.9289C1.05357 84.8043 0 87.3478 0 90V90C0 92.6522 1.05357 95.1957 2.92893 97.0711C4.8043 98.9464 7.34784 100 10 100H30C32.6522 100 35.1957 98.9464 37.0711 97.0711C38.9464 95.1957 40 92.6522 40 90Z" fill="black"/>
</svg>
