<svg width="16" height="16" viewBox="0 0 16 16" fill="none" xmlns="http://www.w3.org/2000/svg">
<path d="M15.8977 0.112772C15.8247 0.040761 15.7197 0 15.6101 0H0.389857C0.280293 0 0.175294 0.040761 0.102251 0.112772C0.0276866 0.184783 -0.0088348 0.28125 0.00181737 0.379076L1.37289 14.0924C1.38659 14.2364 1.49919 14.356 1.65441 14.3967L7.89196 15.9864C7.92544 15.9959 7.96196 16 7.99848 16C8.035 16 8.07 15.9959 8.105 15.9864L14.3471 14.3967C14.5023 14.356 14.6134 14.2364 14.6286 14.0924L15.9982 0.379076C16.0088 0.28125 15.9723 0.184783 15.8977 0.112772ZM12.6154 4.84103H5.28677L5.46176 6.61141H12.4389L11.9154 11.8438L7.99696 12.9008L7.95891 12.8899L4.08613 11.8424L3.87461 9.7106H5.7722L5.85437 10.538L8.01978 10.9429L10.1456 10.538L10.3724 8.29891H3.73309L3.21722 3.14946H12.7843L12.6154 4.84103Z" fill="#FDADC0"/>
</svg>
