<svg width="16" height="16" viewBox="0 0 16 16" fill="none" xmlns="http://www.w3.org/2000/svg">
<path d="M14.9851 0L1.01637 0C0.455357 0 0 0.455357 0 1.01637L0 14.9836C0 15.5446 0.455357 16 1.01637 16H14.9836C15.5446 16 16 15.5446 16 14.9851V1.01637C16 0.455357 15.5446 0 14.9851 0ZM8.7619 12.2604C8.7619 13.7827 7.86905 14.4762 6.56548 14.4762C5.3869 14.4762 4.5372 13.686 4.19048 12.9524L5.38839 12.2277C5.61905 12.6369 5.97024 12.9524 6.47619 12.9524C6.95982 12.9524 7.2381 12.7634 7.2381 12.0283V7.2381H8.7619V12.2604ZM12.067 14.4762C10.7173 14.4762 9.95089 13.7961 9.52381 12.9524L10.6667 12.1905C10.9777 12.6994 11.317 13.186 12.0342 13.186C12.6369 13.186 12.9524 12.8854 12.9524 12.4688C12.9524 11.9717 12.625 11.7946 11.9628 11.5045L11.5997 11.3482C10.5506 10.9018 9.85268 10.3423 9.85268 9.15774C9.85268 8.06845 10.6845 7.2381 11.9821 7.2381C12.9063 7.2381 13.5699 7.55952 14.0491 8.40179L12.9182 9.12946C12.6682 8.68155 12.4003 8.50595 11.9821 8.50595C11.5565 8.50595 11.2872 8.77679 11.2872 9.12946C11.2872 9.56548 11.5565 9.74107 12.1801 10.0119L12.5432 10.1682C13.7798 10.6964 14.4762 11.2366 14.4762 12.4509C14.4762 13.7589 13.4479 14.4762 12.067 14.4762Z" fill="#FDADC0"/>
</svg>
