<svg width="20" height="20" viewBox="0 0 20 20" fill="none" xmlns="http://www.w3.org/2000/svg">
<g clip-path="url(#clip0)">
<path d="M17.0696 2.9275C13.1638 -0.977148 6.83214 -0.976211 2.92749 2.92965C-0.977155 6.83551 -0.976218 13.1671 2.92964 17.0718C6.8355 20.9764 13.1671 20.9755 17.0718 17.0697C18.947 15.1938 20.0002 12.6499 19.9996 9.9975C19.9991 7.34555 18.9451 4.80242 17.0696 2.9275ZM15.1443 13.9295C15.1438 13.93 15.1434 13.9304 15.143 13.9309V13.9275L14.6363 14.4309C13.981 15.0944 13.0267 15.3674 12.1196 15.1509C11.2057 14.9063 10.337 14.5169 9.54628 13.9975C8.81167 13.528 8.13089 12.9792 7.51628 12.3609C6.95077 11.7995 6.44272 11.1831 5.9996 10.5209C5.51491 9.80828 5.13128 9.03203 4.8596 8.21418C4.54815 7.2534 4.80624 6.19914 5.52628 5.49086L6.1196 4.89754C6.28456 4.73184 6.55261 4.73125 6.71827 4.89621C6.7187 4.89664 6.71917 4.89707 6.7196 4.89754L8.59292 6.77086C8.75862 6.93582 8.75921 7.20387 8.59424 7.36953C8.59381 7.36996 8.59339 7.37039 8.59292 7.37086L7.49292 8.47086C7.17729 8.78305 7.1376 9.27914 7.3996 9.63754C7.79745 10.1836 8.23772 10.6973 8.71628 11.1742C9.24983 11.7101 9.82987 12.1975 10.4496 12.6309C10.8077 12.8807 11.2931 12.8386 11.6029 12.5309L12.6662 11.4509C12.8312 11.2852 13.0992 11.2846 13.2649 11.4496C13.2653 11.45 13.2658 11.4504 13.2662 11.4509L15.1429 13.3309C15.3087 13.4958 15.3092 13.7638 15.1443 13.9295Z" fill="#FF809D"/>
</g>
<defs>
<clipPath id="clip0">
<rect width="20" height="20" fill="white"/>
</clipPath>
</defs>
</svg>
