<svg width="20" height="20" viewBox="0 0 20 20" fill="none" xmlns="http://www.w3.org/2000/svg">
<path d="M9.9999 0C4.4771 0 0 4.47724 0 9.99994C0 14.2365 2.63574 17.8582 6.35573 19.3152C6.26823 18.524 6.18928 17.3072 6.39046 16.4434C6.5721 15.663 7.56303 11.4728 7.56303 11.4728C7.56303 11.4728 7.26385 10.8738 7.26385 9.98811C7.26385 8.59764 8.06979 7.55955 9.07334 7.55955C9.92643 7.55955 10.3386 8.20013 10.3386 8.96818C10.3386 9.82623 9.79236 11.1089 9.51037 12.2977C9.27483 13.2931 10.0096 14.1048 10.9912 14.1048C12.7686 14.1048 14.1348 12.2307 14.1348 9.52549C14.1348 7.13123 12.4143 5.45716 9.95779 5.45716C7.11245 5.45716 5.44229 7.5913 5.44229 9.79682C5.44229 10.6564 5.77335 11.5779 6.18651 12.0789C6.26815 12.1779 6.28018 12.2648 6.25589 12.3657C6.17991 12.6816 6.01128 13.3608 5.97811 13.4998C5.93448 13.6828 5.83315 13.7217 5.6437 13.6335C4.39472 13.0521 3.6139 11.2262 3.6139 9.75955C3.6139 6.60505 5.90577 3.70817 10.2212 3.70817C13.6902 3.70817 16.3861 6.18001 16.3861 9.48357C16.3861 12.93 14.2131 15.7036 11.197 15.7036C10.1837 15.7036 9.23104 15.1772 8.90502 14.5554C8.90502 14.5554 8.40354 16.4647 8.28198 16.9326C8.05612 17.8012 7.44674 18.89 7.03909 19.5541C7.97483 19.8438 8.96912 20 9.9999 20C15.5229 20 20 15.523 20 9.99994C20 4.47724 15.5229 0 9.9999 0Z" fill="white"/>
</svg>
