<svg width="16" height="16" viewBox="0 0 16 16" fill="none" xmlns="http://www.w3.org/2000/svg">
<rect width="16" height="16" rx="1" fill="#FDADC0"/>
<path d="M8.00214 10.7834C6.49626 10.7834 5.18049 10.6061 4.1958 10.2686C3.55714 10.0507 3.0146 9.76022 2.62798 9.42913C2.21787 9.07882 2 8.69647 2 8.32694C2 7.61777 2.7775 6.92355 4.08259 6.47071C5.15059 6.09904 6.54325 5.89185 8 5.89185C9.43111 5.89185 10.8046 6.09263 11.8661 6.46003C12.4877 6.67364 13.011 6.95132 13.3827 7.25891C13.7864 7.59641 14 7.96594 14 8.32694C14 9.06387 13.1307 9.80935 11.7294 10.2729C10.7383 10.6018 9.41403 10.7834 8.00214 10.7834ZM8.00214 6.4045C6.62015 6.4045 5.25312 6.60528 4.25347 6.95346C3.05304 7.37212 2.51477 7.94458 2.51477 8.32694C2.51477 8.72424 3.09363 9.3501 4.36241 9.78372C5.2937 10.102 6.55393 10.2707 8.00214 10.2707C9.36063 10.2707 10.6273 10.0999 11.5692 9.78585C12.8871 9.34796 13.4895 8.7221 13.4895 8.32694C13.4895 8.12401 13.3357 7.88477 13.0559 7.65195C12.7334 7.3828 12.2634 7.13716 11.7017 6.94278C10.6913 6.59674 9.37771 6.4045 8.00214 6.4045Z" fill="white"/>
<path d="M5.56924 13.6711C5.35137 13.6711 5.15913 13.6242 4.9968 13.5302C4.38377 13.1756 4.17017 12.1546 4.42862 10.7982C4.64009 9.68538 5.157 8.37816 5.88537 7.11579C6.60092 5.87691 7.45959 4.78756 8.30758 4.05064C8.80313 3.61917 9.30509 3.30304 9.75792 3.13644C10.2513 2.95488 10.6785 2.95488 10.9904 3.1343C11.629 3.50169 11.8405 4.6295 11.5415 6.07342C11.33 7.0987 10.8259 8.33544 10.121 9.55936C9.36917 10.8623 8.55749 11.9132 7.77358 12.5989C7.26522 13.0432 6.7419 13.3678 6.26344 13.5366C6.01353 13.6263 5.77857 13.6711 5.56924 13.6711ZM6.10537 7.24395L6.32752 7.37211C5.63759 8.56826 5.12709 9.85199 4.93058 10.8944C4.69349 12.1439 4.92204 12.8958 5.25098 13.0859C5.33215 13.1329 5.43895 13.1585 5.56924 13.1585C5.9943 13.1585 6.66287 12.8894 7.4361 12.2144C8.17729 11.5672 8.95265 10.559 9.67675 9.30518C10.356 8.12825 10.8387 6.94491 11.0395 5.97303C11.3193 4.61241 11.078 3.77937 10.7341 3.58072C10.5589 3.48033 10.2748 3.49315 9.93307 3.61917C9.53791 3.76442 9.09149 4.04851 8.64293 4.43939C7.83766 5.14 7.01531 6.18236 6.32752 7.37424L6.10537 7.24395Z" fill="white"/>
<path d="M10.435 13.6776C9.85402 13.6776 9.1171 13.3272 8.34814 12.6651C7.48947 11.926 6.61585 10.826 5.88534 9.56363C5.16764 8.32475 4.655 7.03675 4.43926 5.93244C4.31324 5.28737 4.28975 4.6957 4.37091 4.21937C4.46063 3.70032 4.67209 3.3308 4.98608 3.14924C5.62261 2.77971 6.70556 3.15992 7.80773 4.14034C8.58951 4.83454 9.40973 5.88972 10.1167 7.11151C10.8708 8.41446 11.377 9.64266 11.5778 10.6637C11.7081 11.3258 11.7294 11.941 11.6376 12.4408C11.5393 12.9727 11.3172 13.3507 10.9968 13.5366C10.8366 13.6306 10.6465 13.6776 10.435 13.6776ZM6.32962 9.30731C7.02169 10.5035 7.88036 11.5864 8.68349 12.2763C9.64683 13.1051 10.4115 13.2845 10.7426 13.0923C11.0865 12.8936 11.3385 12.0798 11.0779 10.7641C10.8857 9.79859 10.4008 8.62379 9.6746 7.36996C8.99321 6.19303 8.2093 5.1827 7.46811 4.52482C6.43002 3.60207 5.58843 3.39488 5.24454 3.59352C5.06938 3.69392 4.93909 3.9481 4.87714 4.30695C4.80666 4.72133 4.82802 5.25106 4.94336 5.83418C5.14842 6.88295 5.6397 8.11542 6.32962 9.30731Z" fill="white"/>
<path d="M8.00217 9.39917C8.59436 9.39917 9.07443 8.91911 9.07443 8.32694C9.07443 7.73476 8.59436 7.2547 8.00217 7.2547C7.40997 7.2547 6.9299 7.73476 6.9299 8.32694C6.9299 8.91911 7.40997 9.39917 8.00217 9.39917Z" fill="white"/>
</svg>
