<svg width="197" height="26" viewBox="0 0 197 26" fill="none" xmlns="http://www.w3.org/2000/svg">
<path d="M0.565628 13.2422L8.44063 8.0332V11.041L2.52071 14.6777L8.44063 18.4648V21.3906L0.565628 16.127V13.2422ZM16.8625 0.828125H19.3645L13.3488 25H10.8605L16.8625 0.828125ZM21.5793 10.959V8.0332L29.4543 13.2832V16.168L21.5793 21.3906V18.3828L27.4992 14.7598L21.5793 10.959ZM167.505 13.2422L175.38 8.0332V11.041L169.46 14.6777L175.38 18.4648V21.3906L167.505 16.127V13.2422ZM183.802 0.828125H186.304L180.288 25H177.8L183.802 0.828125ZM188.518 10.959V8.0332L196.393 13.2832V16.168L188.518 21.3906V18.3828L194.438 14.7598L188.518 10.959Z" fill="#FF809D"/>
<path d="M44.2473 0.9375H47.0773V19.1758C47.0773 23.25 45.6464 25.2871 42.7844 25.2871C41.2714 25.2871 40.1594 24.8268 39.4484 23.9062C38.7375 22.9766 38.382 21.5684 38.382 19.6816V16.5371H41.1438V19.5039C41.1438 20.7253 41.1984 21.4727 41.3078 21.7461C41.4172 22.0195 41.5266 22.2383 41.6359 22.4023C41.8547 22.7214 42.2147 22.8809 42.716 22.8809C43.2264 22.8809 43.5865 22.7122 43.7961 22.375C44.0148 22.0286 44.1425 21.6094 44.1789 21.1172C44.2245 20.6159 44.2473 20.0052 44.2473 19.2852V0.9375ZM53.7602 0.9375H58.8051C60.2361 0.9375 61.266 1.23372 61.8949 1.82617C62.5238 2.41862 62.9021 3.42578 63.0297 4.84766C63.0844 5.43099 63.1117 6.34245 63.1117 7.58203C63.1117 8.8125 62.9477 9.84701 62.6195 10.6855C62.3005 11.5241 61.7309 12.0664 60.9105 12.3125C61.5121 12.4128 61.9678 12.7318 62.2777 13.2695C62.5876 13.7982 62.8064 14.6458 62.934 15.8125C63.0616 16.9701 63.1254 18.6973 63.1254 20.9941C63.1254 23.2819 63.1983 24.6172 63.3441 25H60.5277C60.3819 24.7083 60.309 22.0059 60.309 16.8926C60.309 15.1699 60.1404 14.1719 59.8031 13.8984C59.4659 13.6159 58.9555 13.4746 58.2719 13.4746L56.5902 13.3789V25H53.7602V0.9375ZM60.309 6.83008C60.309 4.97982 60.1404 3.90885 59.8031 3.61719C59.475 3.32552 58.9965 3.17969 58.3676 3.17969H56.5902V11.3008H58.3949C58.9418 11.3008 59.3428 11.196 59.598 10.9863C59.8533 10.7767 60.0355 10.3757 60.1449 9.7832C60.2543 9.19076 60.309 8.26107 60.309 6.99414V6.83008ZM69.8219 0.9375H74.1695C75.9833 0.9375 77.2138 1.35221 77.8609 2.18164C78.5172 3.00195 78.8544 4.39193 78.8727 6.35156V6.87109C78.8727 8.28385 78.7405 9.39583 78.4762 10.207C78.2119 11.0182 77.7379 11.6061 77.0543 11.9707C78.5309 12.5723 79.2691 14.5 79.2691 17.7539V18.2598C79.2418 20.666 78.8772 22.3932 78.1754 23.4414C77.4736 24.4805 76.2568 25 74.525 25H69.8219V0.9375ZM76.4254 17.3438C76.4254 15.7943 76.2978 14.7096 76.0426 14.0898C75.7874 13.4701 75.2861 13.1602 74.5387 13.1602H72.652V22.7168H74.3883C75.1904 22.7168 75.7281 22.4023 76.0016 21.7734C76.2841 21.1445 76.4254 19.946 76.4254 18.1777V17.3438ZM76.0699 6.39258C76.0699 6.36523 76.0699 6.33789 76.0699 6.31055C76.0699 4.70638 75.7919 3.75846 75.2359 3.4668C74.9625 3.32096 74.566 3.24805 74.0465 3.24805H72.652V10.9863H74.2516C74.7984 10.9863 75.1858 10.8997 75.4137 10.7266C75.6507 10.5443 75.8193 10.1888 75.9195 9.66016C76.0198 9.13151 76.0699 8.26562 76.0699 7.0625V6.39258ZM88.0027 0.9375H91.407L95.3856 25H92.7195L92.0359 20.4062H87.6746L87.0457 25H84.3523L88.0027 0.9375ZM87.9891 18.1094H91.6805L89.7801 5.39453H89.7391L87.9891 18.1094ZM101.07 0.9375H106.115C107.546 0.9375 108.576 1.23372 109.205 1.82617C109.834 2.41862 110.212 3.42578 110.34 4.84766C110.395 5.43099 110.422 6.34245 110.422 7.58203C110.422 8.8125 110.258 9.84701 109.93 10.6855C109.611 11.5241 109.041 12.0664 108.221 12.3125C108.822 12.4128 109.278 12.7318 109.588 13.2695C109.898 13.7982 110.117 14.6458 110.244 15.8125C110.372 16.9701 110.436 18.6973 110.436 20.9941C110.436 23.2819 110.508 24.6172 110.654 25H107.838C107.692 24.7083 107.619 22.0059 107.619 16.8926C107.619 15.1699 107.451 14.1719 107.113 13.8984C106.776 13.6159 106.266 13.4746 105.582 13.4746L103.9 13.3789V25H101.07V0.9375ZM107.619 6.83008C107.619 4.97982 107.451 3.90885 107.113 3.61719C106.785 3.32552 106.307 3.17969 105.678 3.17969H103.9V11.3008H105.705C106.252 11.3008 106.653 11.196 106.908 10.9863C107.163 10.7767 107.346 10.3757 107.455 9.7832C107.564 9.19076 107.619 8.26107 107.619 6.99414V6.83008ZM116.913 0.9375H121.958C123.389 0.9375 124.419 1.23372 125.048 1.82617C125.677 2.41862 126.055 3.42578 126.183 4.84766C126.238 5.43099 126.265 6.34245 126.265 7.58203C126.265 8.8125 126.101 9.84701 125.773 10.6855C125.454 11.5241 124.884 12.0664 124.064 12.3125C124.665 12.4128 125.121 12.7318 125.431 13.2695C125.741 13.7982 125.96 14.6458 126.087 15.8125C126.215 16.9701 126.279 18.6973 126.279 20.9941C126.279 23.2819 126.351 24.6172 126.497 25H123.681C123.535 24.7083 123.462 22.0059 123.462 16.8926C123.462 15.1699 123.293 14.1719 122.956 13.8984C122.619 13.6159 122.109 13.4746 121.425 13.4746L119.743 13.3789V25H116.913V0.9375ZM123.462 6.83008C123.462 4.97982 123.293 3.90885 122.956 3.61719C122.628 3.32552 122.15 3.17969 121.521 3.17969H119.743V11.3008H121.548C122.095 11.3008 122.496 11.196 122.751 10.9863C123.006 10.7767 123.189 10.3757 123.298 9.7832C123.407 9.19076 123.462 8.26107 123.462 6.99414V6.83008ZM132.483 7.47266C132.483 4.73828 132.975 2.86068 133.959 1.83984C134.734 1.03776 135.86 0.636719 137.336 0.636719C139.487 0.636719 140.864 1.52083 141.465 3.28906C141.821 4.33724 141.998 5.73177 141.998 7.47266V18.082C141.998 20.5885 141.648 22.416 140.946 23.5645C140.244 24.7038 139.013 25.2734 137.254 25.2734C135.504 25.2734 134.269 24.6992 133.549 23.5508C132.838 22.4023 132.483 20.5794 132.483 18.082V7.47266ZM139.168 7.30859C139.168 5.76823 139.045 4.67904 138.799 4.04102C138.553 3.39388 138.056 3.07031 137.309 3.07031C136.562 3.07031 136.042 3.39844 135.75 4.05469C135.459 4.71094 135.313 5.79102 135.313 7.29492V18.1094C135.313 19.9414 135.441 21.1901 135.696 21.8555C135.951 22.5117 136.466 22.8398 137.241 22.8398C138.015 22.8398 138.53 22.5072 138.786 21.8418C139.041 21.1673 139.168 19.9232 139.168 18.1094V7.30859ZM148.517 0.9375H155.955V3.09766L150.992 22.6484H155.845V25H148.066V22.5527L153.029 3.28906H148.517V0.9375Z" fill="white"/>
</svg>
